<svg width="27" height="27" viewBox="0 0 27 27" fill="none" xmlns="http://www.w3.org/2000/svg">
<path d="M14.9587 7.66986C18.0256 7.66986 19.3337 8.97799 19.3337 12.0449H22.2504C22.2504 7.34174 19.6619 4.7532 14.9587 4.7532V7.66986ZM19.9492 15.6076C19.6689 15.3529 19.3007 15.217 18.9222 15.2287C18.5437 15.2404 18.1846 15.3988 17.9206 15.6703L14.4308 19.2592C13.5908 19.0988 11.9021 18.5724 10.1637 16.8384C8.42541 15.0986 7.89895 13.4055 7.74291 12.5713L11.329 9.08007C11.6008 8.8163 11.7594 8.4571 11.7711 8.0785C11.7828 7.69989 11.6467 7.33159 11.3917 7.05153L6.00312 1.12632C5.74797 0.845384 5.39336 0.674974 5.01459 0.651284C4.63583 0.627594 4.26274 0.75249 3.97458 0.999447L0.809995 3.71341C0.557865 3.96645 0.407377 4.30323 0.387078 4.65986C0.365203 5.02445 -0.0518803 13.6607 6.64479 20.3603C12.4869 26.2009 19.8048 26.6282 21.8202 26.6282C22.1148 26.6282 22.2956 26.6194 22.3437 26.6165C22.7003 26.5966 23.0369 26.4454 23.2887 26.1922L26.0012 23.0261C26.2484 22.7381 26.3735 22.3652 26.3501 21.9864C26.3267 21.6076 26.1566 21.2529 25.8758 20.9976L19.9492 15.6076Z" fill="#BF0000"/>
</svg>
